<svg width="18" height="18" viewBox="0 0 18 18" fill="none" xmlns="http://www.w3.org/2000/svg">
<g clip-path="url(#clip0_2_5748)">
<path d="M8.99905 18.0001C5.10444 18.0001 1.93591 14.8239 1.93591 10.9198C1.93591 7.8835 3.3158 5.17612 5.34178 2.95263C7.00808 1.12387 8.65722 0.116854 8.72659 0.0749122C9.09214 -0.146221 9.58275 0.155068 9.58275 0.562529V5.41286L12.0643 3.0968C12.2797 2.89574 12.6207 2.90967 12.8181 3.13294C13.7613 4.19906 14.512 5.32487 15.0495 6.47915C18.0475 12.9171 13.9148 18.0001 8.99905 18.0001Z" fill="#FE4E33"/>
<path d="M15.0495 6.4792C14.512 5.32491 13.7612 4.1991 12.8181 3.13299C12.6206 2.90968 12.2796 2.89579 12.0642 3.09685L9.58269 5.41291V0.562577C9.58269 0.255804 9.30464 0.00932312 9.01123 0.000534058V18.0001C13.9216 17.9917 18.0449 12.9118 15.0495 6.4792Z" fill="#FE1600"/>
<path d="M8.999 18C7.51892 18 6.31482 16.793 6.31482 15.3093C6.31482 12.9119 8.64245 11.4924 8.74152 11.4331C8.91519 11.3293 9.13263 11.3342 9.30152 11.4454C9.39877 11.5095 11.6832 13.0418 11.6832 15.3093C11.6832 16.793 10.4791 18 8.999 18Z" fill="#FEC356"/>
<path d="M11.6832 15.3094C11.6832 13.0418 9.39876 11.5096 9.30155 11.4455C9.21359 11.3875 9.11248 11.3587 9.01123 11.3588V17.9997C10.4856 17.9931 11.6832 16.7889 11.6832 15.3094Z" fill="#FEB020"/>
</g>
<defs>
<clipPath id="clip0_2_5748">
<rect width="18" height="18" fill="white"/>
</clipPath>
</defs>
</svg>
