<svg width="18" height="18" viewBox="0 0 18 18" fill="none" xmlns="http://www.w3.org/2000/svg">
<g clip-path="url(#clip0_23_1464)">
<path d="M12.761 4.9321C12.0123 4.19269 11.0517 3.87021 9.90309 3.97009C7.50979 4.18134 6.06265 7.14614 5.48303 8.63391C5.53011 9.02485 5.57082 9.41681 5.60418 9.80901C5.67281 9.77371 5.7279 9.71251 5.75149 9.63253C5.76042 9.60229 6.32886 7.71806 7.4244 6.25102C7.76211 5.79877 8.28421 5.51794 8.84861 5.52111C9.27882 5.52353 9.75395 5.62169 10.1617 5.881C12.5992 7.43115 13.9444 11.9013 13.9577 11.9461C13.9948 12.0714 14.1097 12.1556 14.2378 12.1556C14.2481 12.1556 14.2585 12.155 14.2689 12.1538C14.4092 12.139 14.5188 12.026 14.5293 11.8853C14.5443 11.6875 14.872 7.01704 12.761 4.9321Z" fill="#FFC850"/>
<path d="M5.44782 11.5711C5.29116 11.5711 5.16143 11.4469 5.15588 11.2891C5.15247 11.1913 5.07797 8.86602 5.60222 6.33446C6.31037 2.9145 7.79175 0.80073 9.88612 0.221426C11.5882 -0.249456 13.1614 0.0362232 14.316 1.02562C15.6799 2.19422 16.2741 4.18701 15.9891 6.63694C15.9731 6.77479 15.8624 6.88237 15.7243 6.89436C15.5843 6.90807 15.4585 6.81958 15.4188 6.68662C14.4736 3.51356 11.0048 1.37026 8.69211 1.688C8.49773 1.71472 8.31407 1.8018 8.1803 1.94535C5.54935 4.76758 5.73726 11.1914 5.74004 11.2686C5.74559 11.4298 5.61945 11.5654 5.45822 11.5708C5.45467 11.5711 5.45123 11.5711 5.44782 11.5711Z" fill="#FFC850"/>
<path d="M3.79062 0.524496C3.41413 1.78664 2.74532 4.85353 3.40229 9.23326L4.57119 14.7855L5.7401 11.8633C4.3194 7.60124 4.06501 2.3799 4.01959 0.552059C4.01625 0.4185 3.82884 0.396457 3.79062 0.524496Z" fill="#D4F582"/>
<path d="M7.18785 9.1785C5.16341 9.59236 4.86353 14.2011 4.86353 14.2011L6.03244 17.7078C6.03244 17.7078 6.84827 10.994 7.71143 10.8405C8.55996 10.6896 12.1827 13.4882 13.7746 14.759C13.883 14.8456 14.0255 14.7051 13.9398 14.5959C12.5681 12.8487 9.13427 8.7806 7.18785 9.1785Z" fill="#AFD755"/>
<path d="M1.94168 4.01762C1.93054 6.17618 2.13975 11.8195 4.32735 17.622C4.4131 17.8495 4.63342 18 4.87646 18H6.20392C6.41184 18 6.55176 17.7899 6.47262 17.5976C4.21471 12.1111 2.69993 6.19421 2.17185 3.99005C2.13965 3.85551 1.94242 3.87928 1.94168 4.01762Z" fill="#BEE86E"/>
<path d="M15.911 6.80115C15.8097 3.76885 14.7504 1.23363 12.4978 0.68572C10.6727 0.241802 9.00329 1.09972 8.29675 1.84377C8.41249 1.76045 8.54914 1.70761 8.69205 1.68795C11.0047 1.37021 14.4736 3.51351 15.4187 6.68658C15.4584 6.81958 15.5843 6.90803 15.7242 6.89432C15.7984 6.88792 15.8631 6.85259 15.911 6.80115Z" fill="#FFDC64"/>
<path d="M10.507 4.53944C9.22468 4.51377 8.35186 5.10563 7.62427 6.02746C7.95196 5.70951 8.38498 5.51847 8.84837 5.52107C9.27858 5.5235 9.75371 5.62165 10.1614 5.88097C12.5989 7.43111 13.9442 11.9012 13.9575 11.9461C13.9946 12.0713 14.1094 12.1555 14.2376 12.1555C14.2478 12.1555 14.2583 12.1549 14.2687 12.1538C14.3673 12.1433 14.4486 12.0829 14.4932 11.9999C14.3607 5.26998 11.4202 4.55768 10.507 4.53944Z" fill="#FFDC64"/>
</g>
<defs>
<clipPath id="clip0_23_1464">
<rect width="18" height="18" fill="white"/>
</clipPath>
</defs>
</svg>
