<svg width="18" height="18" viewBox="0 0 18 18" fill="none" xmlns="http://www.w3.org/2000/svg">
<g clip-path="url(#clip0_2_5763)">
<path d="M0.26709 11.5033C0.26709 11.5748 0.267945 11.6462 0.269621 11.7173C0.39833 17.1815 10.0009 17.1815 10.1296 11.7173C10.1313 11.6462 10.1321 11.5748 10.1321 11.5033C10.1321 8.07101 8.1917 5.02724 5.19965 3.13192C2.20754 5.02724 0.26709 8.07101 0.26709 11.5033Z" fill="#FFCA5E"/>
<path d="M5.20216 15.8156C2.76947 15.8156 0.336786 14.4494 0.27227 11.7173C0.270488 11.646 0.269775 11.5747 0.269775 11.5034C0.269775 8.07093 2.21022 5.02731 5.20216 3.13177C3.70583 5.02731 2.73526 8.07093 2.73526 11.5034C2.73526 11.5747 2.73561 11.646 2.73668 11.7173C2.76876 14.4494 3.98528 15.8156 5.20216 15.8156Z" fill="#E8A328"/>
<path d="M5.46716 11.5235C5.46716 11.6124 5.4682 11.7011 5.4703 11.7896C5.63034 18.5833 17.5694 18.5833 17.7294 11.7896C17.7315 11.7011 17.7325 11.6124 17.7325 11.5235C17.7325 7.25604 15.32 3.47167 11.5999 1.11519C7.87978 3.47163 5.46716 7.256 5.46716 11.5235Z" fill="#FFCA5E"/>
<path d="M11.5999 16.8849C8.57517 16.8849 5.55045 15.1865 5.47025 11.7896C5.46811 11.7012 5.46704 11.6125 5.46704 11.5234C5.46704 7.25611 7.87976 3.47146 11.5999 1.11505C9.50583 3.47146 8.1478 7.25611 8.1478 11.5234C8.1478 11.6125 8.14852 11.7012 8.14959 11.7896C8.1945 15.1865 9.8972 16.8849 11.5999 16.8849Z" fill="#E8A328"/>
<path d="M15.8126 10.5597C16.241 10.5597 16.5883 10.2124 16.5883 9.78403C16.5883 9.35561 16.241 9.00832 15.8126 9.00832C15.3842 9.00832 15.0369 9.35561 15.0369 9.78403C15.0369 10.2124 15.3842 10.5597 15.8126 10.5597Z" fill="#FFCE76"/>
<path d="M15.0721 13.5672C15.8074 13.5672 16.4034 12.9712 16.4034 12.2359C16.4034 11.5007 15.8074 10.9046 15.0721 10.9046C14.3369 10.9046 13.7408 11.5007 13.7408 12.2359C13.7408 12.9712 14.3369 13.5672 15.0721 13.5672Z" fill="#FFCE76"/>
<path d="M16.0778 5.12415C15.9977 5.00015 15.8323 4.96458 15.7082 5.0447C15.5842 5.12483 15.5486 5.29029 15.6288 5.41433C16.8303 7.27401 17.4653 9.38654 17.4653 11.5235C17.4653 11.6099 17.4643 11.6973 17.4623 11.7833C17.384 15.1048 14.3686 16.6176 11.6 16.6176C8.83135 16.6176 5.81592 15.1048 5.73765 11.7833C5.73562 11.6973 5.73458 11.6099 5.73458 11.5235C5.73458 9.48599 6.284 7.54034 7.36757 5.74065C8.37696 4.06414 9.83818 2.57755 11.6 1.43281C12.9212 2.29065 14.0573 3.32247 14.9789 4.50181C15.0698 4.61816 15.2378 4.63876 15.3541 4.54787C15.4705 4.45694 15.4911 4.28895 15.4001 4.17261C14.4077 2.90255 13.1772 1.79791 11.743 0.88939C11.6556 0.834071 11.5442 0.834071 11.4569 0.88939C9.86652 1.89679 8.50379 3.17277 7.46876 4.61605C6.8404 3.97703 6.1267 3.4026 5.34272 2.90601C5.25535 2.85069 5.1439 2.85069 5.0566 2.90601C3.52517 3.87623 2.25468 5.15477 1.38252 6.60337C0.478054 8.10561 0 9.80001 0 11.5034C0 11.5832 0.000819807 11.6554 0.00256635 11.7236C0.0206021 12.4887 0.214932 13.186 0.580138 13.7961C0.630253 13.8798 0.718899 13.9262 0.809755 13.9262C0.85652 13.9262 0.903819 13.9139 0.946841 13.8882C1.07352 13.8124 1.11472 13.6482 1.03891 13.5215C0.721751 12.9917 0.552906 12.3826 0.53708 11.7106C0.535441 11.6464 0.534657 11.5787 0.534657 11.5035C0.534657 9.87426 0.974037 8.31844 1.84057 6.87915C2.64291 5.54653 3.80205 4.36373 5.19975 3.44968C5.92335 3.92257 6.58145 4.46521 7.16066 5.06581C7.07436 5.19762 6.99042 5.33053 6.90958 5.4648C5.79115 7.32241 5.19996 9.41745 5.19996 11.5235C5.19996 11.6141 5.20103 11.7057 5.20317 11.7959C5.23639 13.2064 5.75736 14.4238 6.71825 15.3561C5.93654 15.5592 5.08052 15.6031 4.26114 15.4766C3.2469 15.3201 2.36543 14.9255 1.71204 14.3356C1.60247 14.2367 1.43352 14.2453 1.33447 14.355C1.23556 14.4645 1.24418 14.6336 1.35379 14.7325C2.32708 15.6112 3.74848 16.085 5.20153 16.085C5.87527 16.085 6.55585 15.983 7.20161 15.7724C7.22489 15.7902 7.24795 15.8082 7.27158 15.8258C8.42419 16.6811 9.96137 17.1523 11.6 17.1523C13.2386 17.1523 14.7757 16.6811 15.9283 15.8258C17.2424 14.8506 17.9577 13.4571 17.9968 11.796C17.9989 11.7058 18 11.6142 18 11.5236C18 9.28335 17.3354 7.07048 16.0778 5.12415Z" fill="#232E1F"/>
</g>
<defs>
<clipPath id="clip0_2_5763">
<rect width="18" height="18" fill="white"/>
</clipPath>
</defs>
</svg>
