<?xml version="1.0" encoding="iso-8859-1"?>
<!-- Uploaded to: SVG Repo, www.svgrepo.com, Generator: SVG Repo Mixer Tools -->
<svg height="800px" width="800px" version="1.1" id="Layer_1" xmlns="http://www.w3.org/2000/svg" xmlns:xlink="http://www.w3.org/1999/xlink" 
	 viewBox="0 0 512 512" xml:space="preserve">
<path style="fill:#FFCE76;" d="M430.405,305.234v45.745H81.594v-45.744C57.899,179.11,162.316,0,256,0
	S454.098,179.109,430.405,305.234z"/>
<path style="fill:#FFBB5E;" d="M81.595,350.979v-45.744C57.901,179.11,162.316,0,256.001,0c1.544,0,3.091,0.052,4.64,0.148
	C225.85,43.474,204.8,99.969,204.8,161.763c0,75.953,31.81,143.89,81.843,189.216H81.595z"/>
<path style="fill:#FFFFFF;" d="M357.498,200.934c-0.757,0.198-1.518,0.294-2.266,0.294c-3.949,0-7.558-2.647-8.606-6.646
	C329.378,128.872,288.723,75.411,256,75.411c-4.917,0-8.904-3.987-8.904-8.904s3.987-8.904,8.904-8.904
	c21.69,0,44.168,14.435,65.003,41.744c18.715,24.528,33.931,56.745,42.848,90.715C365.099,194.818,362.256,199.687,357.498,200.934z
	"/>
<path style="fill:#415E5C;" d="M342.314,503.091c0,4.917-3.987,8.904-8.904,8.904h-77.322c-0.031,0-0.06,0.004-0.091,0.004
	c-0.031,0-0.06-0.004-0.091-0.004h-77.322c-4.917,0-8.904-3.987-8.904-8.904s3.987-8.904,8.904-8.904h68.509v-76.424
	c0-4.917,3.987-8.904,8.904-8.904c4.917,0,8.904,3.987,8.904,8.904v76.424h68.509C338.327,494.187,342.314,498.174,342.314,503.091z
	"/>
<path style="fill:#97BAA8;" d="M61.217,305.234h85.313h218.94h85.313l-14.379,60.718c-7.903,33.394-41.86,60.715-75.458,60.715
	h-27.818H178.868h-27.815c-33.599,0-67.561-27.322-75.463-60.715L61.217,305.234L61.217,305.234z"/>
<path style="fill:#78A097;" d="M409.913,407.493c-13.949,11.78-31.501,19.174-48.966,19.174h-27.818h-154.26h-27.815
	c-33.599,0-67.561-27.322-75.463-60.715l-14.373-60.718h85.313h100.864C284.566,361.311,342.948,399.931,409.913,407.493z"/>
</svg>