<svg width="118" height="74" viewBox="0 0 118 74" fill="none" xmlns="http://www.w3.org/2000/svg">
<g clip-path="url(#clip0_2_7464)">
<path fill-rule="evenodd" clip-rule="evenodd" d="M108.843 63.2942C108.843 68.4011 85.7092 73.9999 61.1716 73.9999C36.6339 73.9999 16.5714 65.1252 16.5714 60.0183C16.5714 54.9114 39.8868 54.052 64.4182 54.052C88.9495 54.052 108.843 58.1873 108.843 63.2942Z" fill="#E2CAB3"/>
<path fill-rule="evenodd" clip-rule="evenodd" d="M112.641 68.507C112.71 71.2349 106.799 73.6015 99.4349 73.7883C92.0705 73.9752 86.0411 71.9199 85.9722 69.1859C85.9032 66.4518 91.8136 64.0915 99.178 63.9046C106.542 63.7178 112.572 65.773 112.641 68.507Z" fill="#E2CAB3"/>
<path fill-rule="evenodd" clip-rule="evenodd" d="M5.41481 49.0945C1.4913 58.3367 6.2672 63.1758 12.6288 63.973C15.1358 64.2844 18.8964 62.5592 21.6792 61.4818C23.9434 60.4825 26.093 59.2444 28.091 57.7887C29.0374 56.8233 30.153 55.5093 30.3786 54.0519C30.409 53.4887 30.2878 52.9277 30.0277 52.4264C30.0984 52.2165 30.202 52.0189 30.3348 51.841C30.6732 51.2182 29.7581 50.7387 30.2157 50.0412C30.9427 48.9264 29.9838 47.7244 29.5137 46.7341C29.357 46.4165 25.3144 42.8479 25.1264 42.5054C21.7544 38.9617 20.8456 37.2926 16.2076 36.564C10.385 35.6422 4.73791 37.7535 5.41481 49.0945Z" fill="#5F825C"/>
<g style="mix-blend-mode:multiply" opacity="0.4">
<path fill-rule="evenodd" clip-rule="evenodd" d="M7.52086 45.6817C8.18523 45.7627 8.51114 47.5501 8.23537 49.6925C7.95959 51.8349 7.20748 53.4791 6.53685 53.3981C5.86622 53.3172 5.55284 51.5297 5.82234 49.3873C6.09185 47.2449 6.81889 45.5945 7.52086 45.6817Z" fill="#5F825C"/>
</g>
<path fill-rule="evenodd" clip-rule="evenodd" d="M8.14757 55.7024C6.72483 56.3252 6.85645 58.1499 7.43307 59.3332C7.44723 59.3519 7.45784 59.373 7.46441 59.3955C7.59982 59.6681 7.7682 59.9233 7.96581 60.1553C8.66427 61.0389 9.62813 61.6782 10.7173 61.9801C12.0836 62.3226 13.6505 62.0922 14.4402 61.0148C14.4596 60.9816 14.491 60.9571 14.528 60.9463V60.8092C14.3525 60.1117 13.2745 59.9747 12.6978 59.8875C11.4443 59.6945 11.0745 58.5983 10.6922 57.5832C10.3099 56.568 9.40109 55.1294 8.14757 55.7024Z" fill="#8DB54F"/>
<g style="mix-blend-mode:multiply" opacity="0.4">
<path fill-rule="evenodd" clip-rule="evenodd" d="M21.0211 41.976C19.8616 42.5988 20.9396 44.0063 21.4975 44.6727C22.751 46.2172 24.4683 47.3258 25.515 49.0821C26.5617 50.8383 25.1953 53.5599 26.8688 55.0422C26.9494 55.1138 27.0436 55.1687 27.1459 55.2037C27.2481 55.2388 27.3564 55.2532 27.4643 55.2463C27.5722 55.2393 27.6777 55.2111 27.7745 55.1632C27.8713 55.1153 27.9576 55.0488 28.0283 54.9674C28.1016 54.8497 28.1566 54.7216 28.1912 54.5875C28.3949 54.329 28.5538 54.0386 28.6613 53.7281C28.9433 52.7537 28.906 51.7155 28.5548 50.7636C28.2915 49.9104 28.8807 49.0821 28.6237 48.2289C28.506 47.9109 28.3174 47.6235 28.0722 47.3881C27.8151 47.0917 27.5201 46.83 27.1947 46.6096C26.588 46.1083 26.028 45.5539 25.5213 44.953C24.9143 44.2382 24.2475 43.5756 23.5282 42.9725C22.7698 42.2563 21.7858 41.5588 21.0211 41.976Z" fill="#5F825C"/>
</g>
<path fill-rule="evenodd" clip-rule="evenodd" d="M6.48047 49.6676C5.85371 49.5618 5.45886 49.3126 3.43442 48.8144C1.40999 48.3162 0.382104 48.2041 0.0687242 48.0172C-0.244656 47.8304 0.632808 46.8526 0.632808 46.8526C0.632808 46.8526 2.14957 47.4318 3.39682 47.8927C4.64407 48.3535 6.92547 48.9639 6.92547 48.9639C6.92547 48.9639 7.28273 49.1632 7.13857 49.487C6.99442 49.8109 6.48047 49.6676 6.48047 49.6676Z" fill="#300D33"/>
<path fill-rule="evenodd" clip-rule="evenodd" d="M112.817 31.6627C111.118 32.0551 109.683 33.0765 107.915 33.1637C106.035 33.2571 104.155 32.4786 102.318 32.1236C98.3259 31.3514 94.2394 30.9216 90.2031 30.4794C82.0552 29.5826 73.8008 29.1965 65.6216 28.2623C57.4424 27.3281 49.3259 26.2631 41.1404 26.3005C37.197 26.3104 33.2615 26.652 29.3761 27.3219C26.1734 27.8762 22.9142 28.5239 20.2317 30.4358C18.1671 31.9449 16.6112 34.0403 15.7692 36.4458C14.6786 39.3729 20.4385 57.2968 21.3097 58.4739C28.881 68.4385 41.5916 70.6183 62.5066 70.201C84.8568 69.7526 93.4936 67.2801 99.8239 61.7249C103.227 58.7417 106.091 51.0689 106.605 49.568C107.477 46.9211 108.442 44.3116 109.344 41.6772C109.915 40.0081 110.51 38.3577 111.225 36.7447C111.981 35.2293 112.61 33.6546 113.105 32.0364C113.119 31.9924 113.122 31.9455 113.114 31.8999C113.106 31.8543 113.088 31.8113 113.059 31.7746C113.031 31.7379 112.994 31.7085 112.952 31.689C112.909 31.6696 112.863 31.6605 112.817 31.6627Z" fill="#DA840D"/>
<path fill-rule="evenodd" clip-rule="evenodd" d="M109.432 32.8896C106.58 34.8825 102.475 34.9635 99.1342 35.6174C90.886 37.2367 82.6629 38.3515 74.2455 38.1522C66.0099 37.9653 57.768 37 49.5638 36.3274C41.1777 35.6423 32.7729 35.1503 24.3618 35.5302C22.5037 35.5977 20.6604 35.8863 18.8714 36.3897C17.9563 36.6513 16.59 37.0125 16.1324 37.9467C16.0196 38.1891 15.9577 38.4519 15.9507 38.7189V38.7625C15.537 40.1451 16.0196 41.3035 16.4959 42.5304C16.6088 43.0473 16.7341 43.5642 16.8532 44.0812C16.6401 44.0812 16.6088 44.405 16.8532 44.4112H16.9221C16.948 44.4404 16.9798 44.4637 17.0155 44.4797C17.0512 44.4957 17.0898 44.504 17.129 44.504C17.1681 44.504 17.2068 44.4957 17.2424 44.4797C17.2781 44.4637 17.3099 44.4404 17.3358 44.4112C18.815 44.4112 20.2816 44.1372 21.767 44.0998C23.9983 44.0376 25.8911 45.171 27.8403 46.1052C31.3376 47.7618 34.6406 49.6987 38.1818 51.1685C39.7618 51.8254 41.3872 52.3686 43.0455 52.794C44.6989 53.1473 46.3738 53.3928 48.0595 53.5289C49.8521 53.7593 51.6258 54.1517 53.4121 54.3946C55.4126 54.6301 57.4298 54.6947 59.4415 54.5876C67.4308 54.4477 75.3956 53.6667 83.2583 52.2522C90.4034 50.9194 97.5485 48.914 103.772 45.0838C106.233 43.5972 108.317 41.5687 109.864 39.1549C110.579 38.0401 111.187 36.8381 111.851 35.6922C112.34 34.8389 112.929 33.8238 112.841 32.8336C112.697 30.6787 110.309 32.2855 109.432 32.8896Z" fill="#C66720"/>
<path opacity="0.4" fill-rule="evenodd" clip-rule="evenodd" d="M61.3721 66.0158C30.3475 70.3754 21.0589 57.9631 21.341 58.3306C28.9122 68.2952 41.6292 70.475 62.5379 70.0577C84.8881 69.6156 93.9699 66.9936 100.306 61.4383C103.515 58.6171 107.069 48.2102 107.777 46.1862C92.2526 58.8786 87.8214 62.2791 61.3721 66.0158Z" fill="#C66720"/>
<path fill-rule="evenodd" clip-rule="evenodd" d="M117.968 21.5112C117.611 19.3252 114.208 19.02 112.528 18.3972C111.043 17.8492 110.021 16.5289 108.811 15.5386C107.506 14.4663 106.054 13.5836 104.499 12.9167C100.958 11.3971 97.4106 10.1826 94.1828 8.034C91.2119 6.0473 87.5642 5.79196 84.1546 5.23767C82.0469 4.91069 79.9839 4.3444 78.0061 3.54991C76.2492 2.72947 74.3934 2.13711 72.4844 1.78741C70.5163 1.52584 68.4919 1.97425 66.5239 2.05521C64.3427 2.1424 62.3371 1.43242 60.2876 0.80963C58.6146 0.207537 56.8376 -0.0571167 55.0604 0.0311413C53.4058 0.168155 51.9266 1.04006 50.5352 1.89951C50.5003 1.91879 50.471 1.94669 50.4502 1.98051C50.4293 2.01433 50.4176 2.05293 50.4162 2.09258C48.843 2.90843 47.3325 3.81771 45.7531 4.63979C44.4351 5.36211 43.0215 5.89671 41.5538 6.22791C39.755 6.60158 38.0627 6.30264 36.2765 6.07221C33.1427 5.6674 30.1781 5.59266 27.2072 6.73237C23.6723 8.09005 20.8582 10.8552 17.3546 12.3375C14.3399 13.5831 11.7138 15.0591 9.83347 17.818C9.05085 18.976 8.51741 20.2821 8.26657 21.6544C8.03467 23.1304 8.39193 24.4694 8.70531 25.9143C9.11897 27.7827 8.74918 29.2774 8.21017 31.0773C7.75085 32.264 7.78467 33.5835 8.30418 34.7455C8.79305 35.6921 9.83347 36.3025 10.7423 36.7882C11.6511 37.274 13.9701 37.7972 14.1644 38.9306C14.9917 43.7386 20.432 41.4841 23.6347 42.6674C25.2079 43.259 26.662 44.1559 28.2602 44.7351C30.0966 45.4015 32.0208 45.8997 33.901 46.4041C37.6616 47.4131 41.2843 48.7583 44.9383 50.1409C46.549 50.7637 48.0721 51.5359 49.7957 51.8473C51.5192 52.1587 53.2992 51.8785 55.004 51.729C58.5452 51.4114 69.7454 52.3518 71.2308 51.5982C73.155 50.6578 74.9413 50.745 77.0221 50.9194C78.6454 51.0564 80.0493 49.8606 81.6789 49.7298C83.5521 49.5465 85.3995 49.1601 87.1881 48.5777C88.7834 47.9652 90.4088 47.4331 92.0581 46.9833C93.9383 46.5661 95.5804 45.2146 97.4795 44.9593C101.171 44.4548 103.879 42.3996 106.737 40.0143C109.332 37.8532 115.468 30.4046 116 28.9286C116.533 27.4526 116.928 25.8147 117.36 24.2888C117.599 23.4356 118.119 22.4205 117.968 21.5112Z" fill="#F0A508"/>
<g opacity="0.5">
<path opacity="0.5" fill-rule="evenodd" clip-rule="evenodd" d="M60.0621 10.5314C59.5419 11.2102 58.9151 11.397 58.9715 15.6196C59.028 19.8421 59.4354 21.4364 57.7995 24.6376C56.1637 27.8387 52.9923 30.9464 51.8704 34.3531C50.7485 37.7598 49.332 43.3524 50.7673 45.526C52.2026 47.6995 57.4297 48.7707 64.556 48.9638C71.6822 49.1568 79.4979 47.9984 83.8915 46.6408C88.2851 45.2831 90.8235 44.7226 91.82 43.5268C92.8166 42.3311 87.8464 32.1173 84.3678 28.1314C80.8893 24.1456 79.2221 22.8252 75.2986 19.5245C71.3751 16.2237 69.6578 14.9096 67.7211 12.244C65.7844 9.57849 65.283 9.43525 63.2461 9.46639C62.0956 9.46312 60.9764 9.8375 60.0621 10.5314Z" fill="#E2CAB3"/>
<path opacity="0.5" fill-rule="evenodd" clip-rule="evenodd" d="M20.476 37.3674C23.24 31.0337 26.8877 28.1501 27.9093 26.7177C30.7235 22.7755 32.3907 21.0503 36.1199 20.4898C39.8491 19.9293 37.8059 19.948 42.0427 19.3563C46.2796 18.7647 49.8334 17.8492 52.6977 15.6196C55.5619 13.39 57.0411 11.6524 58.5641 11.1106C60.0872 10.5688 62.4375 9.36055 60.7703 11.067C59.1031 12.7734 61.3281 13.4211 58.1943 18.0485C55.0605 22.6758 53.5689 25.0673 52.4532 28.6359C51.3376 32.2045 50.1843 43.34 47.6334 44.2181C45.0825 45.0963 38.9967 45.252 33.3433 43.1656C28.9565 41.4545 24.6617 39.5192 20.476 37.3674Z" fill="#E2CAB3"/>
<path opacity="0.5" fill-rule="evenodd" clip-rule="evenodd" d="M96.8779 40.2136C96.8779 40.2136 102.118 38.5882 105.126 35.9911C108.135 33.3941 111.143 30.9714 112.096 27.4028C113.048 23.8342 114.126 22.9436 112.961 21.8849C111.795 20.8262 105.559 15.2024 100.425 12.4309C95.2922 9.65952 88.7677 7.90948 82.9639 6.69504C77.1601 5.48059 74.0827 6.19058 71.0554 6.07225C68.0282 5.95392 63.2335 9.42286 63.3024 9.46023C64.9785 11.0619 66.843 12.4567 68.8555 13.6142C71.5757 15.0342 77.9185 17.4382 81.0147 19.2194C84.1108 21.0005 86.5677 24.9366 87.2822 26.78C87.9967 28.6235 88.9996 29.1965 90.0212 32.7277C91.0428 36.2589 93.8758 41.945 93.8758 41.945L96.8779 40.2136Z" fill="#E2CAB3"/>
<path opacity="0.5" fill-rule="evenodd" clip-rule="evenodd" d="M11.9396 18.7585C11.9396 18.7585 9.52035 25.2168 10.7739 28.3245C11.6432 30.363 12.8274 32.2541 14.2837 33.9296C14.2837 33.9296 17.4175 36.9066 19.5548 33.8238C21.692 30.741 26.3238 23.5415 30.0028 20.7639C33.6819 17.9862 38.2635 17.3883 41.6606 16.9835C45.0576 16.5787 53.0363 15.2148 55.2424 13.4274C57.4486 11.64 63.3026 9.46021 63.3026 9.46021C60.77 8.30486 58.1318 7.39349 55.4242 6.73861C51.3252 5.80442 44.7693 8.30182 39.4481 7.05623C34.1269 5.81065 28.9374 8.61944 23.0458 11.6088C19.1335 13.653 15.4162 16.046 11.9396 18.7585Z" fill="#E2CAB3"/>
<path opacity="0.5" fill-rule="evenodd" clip-rule="evenodd" d="M47.0382 5.53667C47.0382 5.53667 52.5474 0.373731 56.2892 0.467149C61.0212 0.591707 62.5568 1.62554 64.8194 2.33552C67.3954 3.13269 68.4232 3.45032 67.7589 4.47792C67.0945 5.50553 63.9607 10.083 63.9607 10.083C63.9607 10.083 56.4396 6.4148 53.6819 5.9913C51.4821 5.67242 49.2612 5.52043 47.0382 5.53667Z" fill="#E2CAB3"/>
</g>
<path opacity="0.4" fill-rule="evenodd" clip-rule="evenodd" d="M101.221 11.2538C99.736 10.631 98.2443 10.1141 96.7839 9.42282C95.0737 8.55025 93.3161 7.77264 91.5191 7.09358C89.8979 6.59931 88.234 6.2553 86.5489 6.06598C82.7382 5.44319 79.2409 3.87998 75.5869 2.75896C73.4919 2.11849 71.3026 1.83629 69.1125 1.92442C67.2071 2.04898 65.2956 2.04898 63.3902 1.92442C61.5099 1.72513 59.8553 0.859448 58.0251 0.379899C55.8001 -0.205524 53.9512 0.379899 51.9769 1.43242C49.0625 2.93334 46.1543 4.76435 42.9954 5.72344C41.3083 6.2702 39.5427 6.53947 37.7683 6.52062C35.888 6.45834 34.0955 6.08466 32.2465 5.9601C30.2096 5.744 28.1533 6.11592 26.3236 7.03131C24.935 7.76261 23.6264 8.63503 22.4189 9.63457C22.4127 9.74451 22.4127 9.85471 22.4189 9.96465C22.0544 11.0227 21.924 12.1465 22.0366 13.2592C22.0917 14.3947 22.391 15.5052 22.9143 16.5161C23.4375 17.527 24.1726 18.4147 25.0701 19.1197C26.3738 20.2158 27.7401 21.0566 28.8307 22.3706C29.9212 23.6847 30.711 25.0549 31.9645 26.1074C34.0077 27.8387 36.7216 27.9758 39.2913 27.9758C40.6451 27.9758 41.9926 27.9073 43.3402 27.9758C45.1897 28.1693 47.0084 28.5876 48.7554 29.2213C52.3655 30.3424 55.9067 31.8931 59.6359 32.6218C63.3651 33.3504 67.063 32.4723 70.6857 31.507C74.3083 30.5417 77.8809 29.894 81.4283 28.9598C84.6356 28.1763 87.6797 26.8399 90.4223 25.0113C93.3492 22.8985 95.9962 20.4272 98.3007 17.6561C99.1844 16.6347 100.024 15.576 100.895 14.5422C101.67 13.7631 102.188 12.7683 102.381 11.6898C101.987 11.5639 101.6 11.4184 101.221 11.2538Z" fill="#E2CAB3"/>
<path fill-rule="evenodd" clip-rule="evenodd" d="M51.2122 15.5324C50.9238 15.5947 50.6355 15.6445 50.366 15.6819H50.2783C48.3103 16.0618 46.361 16.5351 44.3366 16.3794C42.9703 16.2798 37.6303 16.423 38.8838 18.8706C38.8986 18.9129 38.8986 18.959 38.8838 19.0014C39.9869 19.6989 42.4375 19.4124 43.2711 19.3501C43.9778 19.3022 44.6798 19.2001 45.3708 19.045C47.3365 18.2703 49.2061 17.2735 50.9426 16.0743C51.0549 15.9055 51.1454 15.7235 51.2122 15.5324Z" fill="#C66720"/>
<path fill-rule="evenodd" clip-rule="evenodd" d="M58.9842 20.552C59.1138 19.248 59.0674 17.9327 58.8463 16.6409C58.009 18.6173 56.9358 20.4866 55.6499 22.2086C54.8977 23.149 53.9012 23.9649 53.2932 25.0112C52.9673 25.5717 52.5161 26.4062 52.7542 27.0913C53.1303 28.1687 53.7946 28.1625 54.5029 28.0193C55.7188 27.2719 56.8344 25.5281 57.4361 24.6313C57.9927 23.8005 58.4452 22.9054 58.7836 21.9657C58.8526 21.4986 58.9153 21.0315 58.9842 20.552Z" fill="#C66720"/>
<path fill-rule="evenodd" clip-rule="evenodd" d="M79.0215 16.8154C77.5519 16.2207 76.0518 15.703 74.5276 15.2646C73.597 15.0241 72.6873 14.7097 71.8075 14.3242C71.1321 13.9213 70.3688 13.6863 69.5825 13.6391C69.535 13.636 69.4875 13.6452 69.4446 13.6657C69.4017 13.6863 69.3649 13.7175 69.3377 13.7564C69.3106 13.7953 69.2941 13.8405 69.2897 13.8876C69.2854 13.9347 69.2934 13.9821 69.313 14.0253C69.3752 14.2234 69.4979 14.3975 69.664 14.5235C70.5986 15.8223 71.6338 17.0467 72.7601 18.1855C73.7692 19.319 74.6404 20.5397 75.7686 21.5922C77.2979 23.0557 80.0619 23.9463 81.6288 21.9285C83.3586 19.6802 81.002 17.6437 79.0215 16.8154Z" fill="#C66720"/>
<path fill-rule="evenodd" clip-rule="evenodd" d="M72.7038 5.77956C72.171 4.63985 70.4412 4.67099 69.2942 4.93879C69.201 4.95087 69.1089 4.9696 69.0184 4.99484C67.4311 5.80624 66.1997 7.16955 65.5587 8.82501C67.439 8.27072 68.8241 6.95663 70.811 6.7262C71.1306 6.68883 73.0673 6.54559 72.7038 5.77956Z" fill="#C66720"/>
<path fill-rule="evenodd" clip-rule="evenodd" d="M46.1792 7.84705C46.431 7.9268 46.6924 7.97287 46.9564 7.98407C47.5772 7.87849 48.2073 7.83675 48.8367 7.85951C49.081 7.84728 49.3257 7.84728 49.57 7.85951C50.3907 7.8922 51.2089 7.97122 52.0206 8.09617L52.3403 8.18336C52.7866 8.23031 53.2344 8.10797 53.5938 7.84083C51.7574 7.03742 46.6994 5.13168 46.01 7.59171C46.0005 7.64765 46.0126 7.7051 46.044 7.75249C46.0754 7.79987 46.1237 7.83367 46.1792 7.84705Z" fill="#C66720"/>
<path fill-rule="evenodd" clip-rule="evenodd" d="M11.8018 34.8016C11.655 35.1256 11.5497 35.4667 11.4884 35.8167C11.3946 36.0773 11.3397 36.35 11.3254 36.6264C11.3284 36.6438 11.3354 36.6602 11.346 36.6744C11.3566 36.6886 11.3703 36.7001 11.3862 36.708C11.4021 36.7159 11.4196 36.7199 11.4374 36.7198C11.4551 36.7197 11.4726 36.7154 11.4884 36.7073C11.6764 36.6015 11.6827 36.2838 11.714 36.0845C11.7709 35.6613 11.8674 35.2443 12.0023 34.839C12.0525 34.7455 11.8582 34.6833 11.8018 34.8016Z" fill="#C66720"/>
<path fill-rule="evenodd" clip-rule="evenodd" d="M12.9799 35.7667C12.8198 36.0752 12.7038 36.4043 12.6351 36.7445C12.585 36.9251 12.4408 37.2116 12.4973 37.3673C12.5008 37.3875 12.5105 37.4061 12.5251 37.4206C12.5397 37.4351 12.5584 37.4447 12.5787 37.4483C12.8169 37.4483 12.842 37.1369 12.8796 36.9687C12.9673 36.6013 13.0425 36.2214 13.1679 35.8602C13.2118 35.7543 13.0425 35.6546 12.9799 35.7667Z" fill="#C66720"/>
<path fill-rule="evenodd" clip-rule="evenodd" d="M18.6461 40.0143C18.5896 40.6371 18.3891 41.2599 18.3953 41.92C18.3953 42.1068 18.6899 42.138 18.6962 41.92C18.7909 41.278 18.8516 40.6315 18.878 39.9831C18.8717 39.8586 18.6586 39.8897 18.6461 40.0143Z" fill="#C66720"/>
<path fill-rule="evenodd" clip-rule="evenodd" d="M20.2003 40.3381C19.9954 40.8291 19.8971 41.3576 19.912 41.8889C19.912 42.0882 20.2316 42.1255 20.2379 41.8889C20.2564 41.3748 20.313 40.8627 20.4071 40.3568C20.4322 40.2572 20.2442 40.226 20.2003 40.3381Z" fill="#C66720"/>
<path fill-rule="evenodd" clip-rule="evenodd" d="M45.5278 48.8393C45.4333 49.0738 45.366 49.3183 45.3272 49.5679C45.2682 49.7914 45.2428 50.0222 45.252 50.253C45.2603 50.2779 45.2762 50.2996 45.2976 50.315C45.319 50.3304 45.3447 50.3387 45.3711 50.3387C45.3975 50.3387 45.4232 50.3304 45.4446 50.315C45.466 50.2996 45.4819 50.2779 45.4902 50.253C45.5432 50.0496 45.5706 49.8404 45.5717 49.6302C45.6093 49.3687 45.6218 49.1071 45.6719 48.8455C45.6845 48.7895 45.5591 48.7708 45.5278 48.8393Z" fill="#C66720"/>
<path fill-rule="evenodd" clip-rule="evenodd" d="M47.3077 49.0572C47.2097 49.3718 47.1426 49.6951 47.1072 50.0225C47.0368 50.297 47.0156 50.5816 47.0445 50.8633C47.0542 50.8876 47.0711 50.9084 47.0929 50.9231C47.1147 50.9377 47.1404 50.9455 47.1667 50.9455C47.193 50.9455 47.2187 50.9377 47.2405 50.9231C47.2623 50.9084 47.2791 50.8876 47.2889 50.8633C47.3558 50.6179 47.3854 50.3639 47.3767 50.1097C47.3767 49.761 47.4331 49.4122 47.4644 49.0697C47.4611 49.0522 47.4521 49.0363 47.4388 49.0245C47.4255 49.0126 47.4087 49.0054 47.3908 49.004C47.373 49.0026 47.3552 49.007 47.3402 49.0166C47.3252 49.0263 47.3138 49.0405 47.3077 49.0572Z" fill="#C66720"/>
<path fill-rule="evenodd" clip-rule="evenodd" d="M54.3838 50.1222C54.3838 50.0225 54.2648 49.9354 54.2146 50.0288C54.0533 50.3367 53.9674 50.6781 53.9639 51.0252C53.9639 51.1996 53.92 51.648 54.1394 51.6916C54.1534 51.6966 54.1682 51.6987 54.183 51.6979C54.1979 51.6972 54.2124 51.6935 54.2258 51.6871C54.2392 51.6807 54.2512 51.6718 54.2611 51.6608C54.271 51.6499 54.2786 51.637 54.2836 51.6231C54.2937 51.429 54.279 51.2344 54.2397 51.0439C54.2371 50.7309 54.2858 50.4196 54.3838 50.1222Z" fill="#C66720"/>
<path fill-rule="evenodd" clip-rule="evenodd" d="M56.1449 50.06C56.1405 50.046 56.1318 50.0338 56.1199 50.0252C56.1081 50.0165 56.0938 50.0119 56.0791 50.0119C56.0644 50.0119 56.0501 50.0165 56.0382 50.0252C56.0264 50.0338 56.0177 50.046 56.0133 50.06C55.8747 50.5923 55.8197 51.1427 55.8503 51.6917C55.8503 51.8598 56.1198 51.8785 56.1136 51.6917C56.0841 51.1477 56.0946 50.6024 56.1449 50.06Z" fill="#C66720"/>
<path fill-rule="evenodd" clip-rule="evenodd" d="M58.0753 50.2531C58.0753 50.2316 58.0667 50.211 58.0514 50.1958C58.0361 50.1807 58.0154 50.1721 57.9938 50.1721C57.9722 50.1721 57.9514 50.1807 57.9362 50.1958C57.9209 50.211 57.9123 50.2316 57.9123 50.2531C57.8872 50.5022 57.8684 50.7513 57.8559 51.0004C57.8559 51.181 57.7305 51.4177 57.8559 51.5734C57.8658 51.581 57.8779 51.5851 57.8904 51.5851C57.9028 51.5851 57.915 51.581 57.9248 51.5734C58.1379 51.5734 58.1254 51.2309 58.1379 51.0689C58.1493 50.7955 58.1283 50.5217 58.0753 50.2531Z" fill="#C66720"/>
<path fill-rule="evenodd" clip-rule="evenodd" d="M92.4091 46.3606C92.4091 46.398 92.4091 46.2983 92.4091 46.2859C92.3712 46.1969 92.3398 46.1053 92.3151 46.0119C92.2524 45.769 92.2399 45.5074 92.1647 45.2645C92.1647 45.196 92.0268 45.1586 92.008 45.2645C91.9892 45.3704 92.008 46.7405 92.3966 46.5101C92.4102 46.5035 92.422 46.4934 92.4306 46.481C92.4392 46.4685 92.4444 46.454 92.4457 46.4389C92.4469 46.4238 92.4442 46.4087 92.4378 46.395C92.4314 46.3812 92.4215 46.3694 92.4091 46.3606Z" fill="#C66720"/>
<path fill-rule="evenodd" clip-rule="evenodd" d="M94.6405 45.8C94.5161 45.4185 94.3654 45.046 94.1892 44.6853C94.1809 44.6596 94.1627 44.6384 94.1386 44.6261C94.1145 44.6139 94.0865 44.6116 94.0607 44.6199C94.035 44.6281 94.0136 44.6462 94.0012 44.6702C93.9889 44.6941 93.9866 44.7219 93.9949 44.7475C94.0884 45.1498 94.2099 45.5452 94.3584 45.9308C94.4274 46.1177 94.7157 45.9869 94.6405 45.8Z" fill="#C66720"/>
<path fill-rule="evenodd" clip-rule="evenodd" d="M96.784 44.6976C96.5661 44.3859 96.4186 44.0311 96.3515 43.6575C96.3458 43.6346 96.3325 43.6142 96.3137 43.5996C96.295 43.5851 96.2719 43.5771 96.2481 43.5771C96.2243 43.5771 96.2012 43.5851 96.1824 43.5996C96.1637 43.6142 96.1504 43.6346 96.1447 43.6575C96.1159 44.1041 96.2493 44.5461 96.5207 44.9031C96.6398 45.1024 96.9093 44.8782 96.784 44.6976Z" fill="#C66720"/>
<path fill-rule="evenodd" clip-rule="evenodd" d="M99.4541 44.3926C99.2434 44.2167 99.0709 44.0002 98.947 43.7561C98.8231 43.512 98.7504 43.2455 98.7333 42.9726C98.7347 42.9576 98.7315 42.9426 98.7241 42.9294C98.7168 42.9163 98.7056 42.9056 98.692 42.8989C98.6785 42.8922 98.6632 42.8897 98.6482 42.8917C98.6332 42.8937 98.6192 42.9002 98.608 42.9103C98.0564 43.2965 98.8837 44.2929 99.1908 44.5856C99.3475 44.76 99.6108 44.5483 99.4541 44.3926Z" fill="#C66720"/>
<path fill-rule="evenodd" clip-rule="evenodd" d="M102.475 42.9726C102.144 42.4148 101.777 41.8781 101.378 41.3658C101.334 41.2911 101.19 41.316 101.222 41.4157C101.416 42.0384 101.967 42.4806 102.237 43.0847C102.306 43.2529 102.544 43.1408 102.475 42.9726Z" fill="#C66720"/>
<path fill-rule="evenodd" clip-rule="evenodd" d="M104.969 41.0482C104.913 40.9299 104.762 40.8614 104.662 40.7867L104.167 40.4255C104.042 40.332 103.91 40.2449 103.778 40.1577C103.647 40.0705 103.641 40.1203 103.584 40.0892C103.528 40.058 103.534 40.0892 103.553 40.0892C103.572 40.0892 103.584 40.1888 103.628 40.2324C103.739 40.3467 103.856 40.4548 103.979 40.5562C104.136 40.6933 104.299 40.8178 104.462 40.9424C104.625 41.0669 104.712 41.1728 104.856 41.1728C104.872 41.1729 104.888 41.1696 104.903 41.1632C104.917 41.1569 104.93 41.1475 104.941 41.1357C104.952 41.1239 104.96 41.1101 104.965 41.095C104.969 41.0799 104.971 41.064 104.969 41.0482Z" fill="#C66720"/>
<path fill-rule="evenodd" clip-rule="evenodd" d="M107.094 39.4912C107.083 39.4549 107.061 39.4225 107.033 39.3973C107.004 39.3721 106.969 39.355 106.931 39.3479C106.814 39.2941 106.707 39.2227 106.612 39.1362C106.391 38.9438 106.2 38.7191 106.048 38.4698C105.979 38.3639 105.816 38.4698 105.866 38.5881C105.999 38.8859 106.194 39.1531 106.436 39.3728C106.587 39.5098 106.869 39.7403 107.063 39.6095C107.08 39.5954 107.092 39.5765 107.098 39.5553C107.103 39.5341 107.102 39.5117 107.094 39.4912Z" fill="#C66720"/>
<path fill-rule="evenodd" clip-rule="evenodd" d="M114.17 31.4821C114.142 31.4484 114.106 31.421 114.066 31.4017C114.026 31.3824 113.983 31.3716 113.939 31.37C113.799 31.346 113.667 31.2929 113.55 31.2143C113.301 31.043 113.114 30.7961 113.017 30.5105C113.017 30.4171 112.854 30.4731 112.861 30.5603C112.899 30.8964 113.068 31.2045 113.331 31.4198C113.512 31.5692 113.957 31.8121 114.164 31.5942C114.178 31.5792 114.187 31.5598 114.188 31.5392C114.189 31.5187 114.183 31.4985 114.17 31.4821Z" fill="#C66720"/>
<path fill-rule="evenodd" clip-rule="evenodd" d="M115.555 29.8939C115.026 29.6217 114.58 29.213 114.264 28.7106C114.208 28.6172 114.045 28.7106 114.101 28.7915C114.39 29.3665 114.861 29.8307 115.443 30.1119C115.568 30.1617 115.681 29.9499 115.555 29.8939Z" fill="#C66720"/>
<path fill-rule="evenodd" clip-rule="evenodd" d="M116.414 27.6955C116.174 27.5399 115.943 27.3693 115.725 27.1848C115.511 26.9917 115.311 26.7986 115.098 26.6243C115.016 26.562 114.91 26.6803 114.979 26.7613C115.305 27.2654 115.759 27.6756 116.295 27.9508C116.327 27.9589 116.362 27.9555 116.392 27.9411C116.422 27.9268 116.447 27.9023 116.461 27.8721C116.475 27.8418 116.478 27.8076 116.469 27.7754C116.461 27.7432 116.441 27.7149 116.414 27.6955Z" fill="#C66720"/>
<path fill-rule="evenodd" clip-rule="evenodd" d="M10.2474 33.1574C9.70478 33.8963 9.33829 34.7482 9.17566 35.6486C9.17566 35.7233 9.28221 35.7295 9.30101 35.6486C9.51616 34.7934 9.89959 33.9891 10.4292 33.2819C10.5044 33.1636 10.3226 33.0391 10.2474 33.1574Z" fill="#C66720"/>
<path fill-rule="evenodd" clip-rule="evenodd" d="M9.26967 32.5409C9.13178 32.6032 9.07537 32.7215 8.98136 32.846C8.88735 32.9706 8.72439 33.2073 8.61157 33.4003C8.45169 33.6217 8.36616 33.8876 8.36713 34.1601C8.36713 34.2535 8.51129 34.2349 8.51756 34.1601C8.59042 33.8782 8.72289 33.6149 8.90615 33.3879C9.05657 33.1574 9.35115 32.8959 9.38249 32.6218C9.38358 32.608 9.38107 32.5941 9.3752 32.5815C9.36933 32.5689 9.36029 32.558 9.34896 32.5499C9.33763 32.5417 9.32439 32.5366 9.3105 32.5351C9.29661 32.5335 9.28255 32.5355 9.26967 32.5409Z" fill="#C66720"/>
<path fill-rule="evenodd" clip-rule="evenodd" d="M11.081 34.5649C10.9047 34.8465 10.7617 35.1474 10.6548 35.4617C10.5154 35.7549 10.4143 36.0647 10.354 36.3834C10.354 36.4644 10.4731 36.4893 10.4919 36.3834C10.5722 36.0764 10.6879 35.7797 10.8366 35.4991C11.0196 35.216 11.1472 34.9012 11.2127 34.5711C11.2135 34.5538 11.2074 34.5368 11.1956 34.5239C11.1839 34.5111 11.1674 34.5034 11.15 34.5026C11.1325 34.5018 11.1155 34.5079 11.1025 34.5195C11.0896 34.5312 11.0819 34.5475 11.081 34.5649Z" fill="#C66720"/>
<path fill-rule="evenodd" clip-rule="evenodd" d="M14.4779 36.7447C14.0078 36.8879 13.7884 37.5045 13.6631 37.9342C13.6583 37.9563 13.6618 37.9794 13.6729 37.9992C13.684 38.0189 13.702 38.034 13.7234 38.0416C13.7448 38.0492 13.7683 38.0488 13.7895 38.0405C13.8107 38.0322 13.8281 38.0166 13.8386 37.9965C13.9137 37.7789 14.0124 37.57 14.1331 37.3737C14.2522 37.1869 14.4214 37.0312 14.5468 36.8443C14.5719 36.807 14.5343 36.7447 14.4779 36.7447Z" fill="#C66720"/>
<path fill-rule="evenodd" clip-rule="evenodd" d="M15.5183 38.613C15.2739 38.7002 15.1423 39.0054 15.0295 39.2358C14.9015 39.5036 14.8433 39.7992 14.8602 40.0952C14.8602 40.1949 15.0107 40.2136 15.0169 40.0952C15.0379 39.8476 15.1015 39.6053 15.205 39.379C15.3052 39.1361 15.5497 38.9493 15.6186 38.7064C15.6234 38.6928 15.6241 38.678 15.6206 38.664C15.6171 38.65 15.6096 38.6372 15.599 38.6273C15.5884 38.6174 15.5751 38.6108 15.5608 38.6083C15.5465 38.6057 15.5317 38.6074 15.5183 38.613Z" fill="#C66720"/>
<path fill-rule="evenodd" clip-rule="evenodd" d="M16.5273 39.267C16.3264 39.5854 16.1743 39.9317 16.0761 40.2946C15.9419 40.6328 15.8411 40.9832 15.7752 41.3409C15.7702 41.3623 15.774 41.3849 15.7858 41.4036C15.7975 41.4223 15.8163 41.4356 15.8379 41.4405C15.8595 41.4455 15.8822 41.4417 15.901 41.43C15.9198 41.4183 15.9332 41.3997 15.9382 41.3782C16.0315 41.0314 16.1509 40.6921 16.2954 40.3631C16.4724 40.0326 16.5991 39.6779 16.6715 39.3106C16.6744 39.3012 16.6754 39.2913 16.6744 39.2815C16.6734 39.2717 16.6705 39.2622 16.6659 39.2535C16.6612 39.2449 16.6549 39.2372 16.6473 39.2309C16.6396 39.2247 16.6308 39.22 16.6213 39.2171C16.6119 39.2143 16.6019 39.2133 16.5921 39.2143C16.5822 39.2152 16.5727 39.2181 16.5639 39.2227C16.5552 39.2273 16.5475 39.2336 16.5412 39.2412C16.5349 39.2488 16.5302 39.2576 16.5273 39.267Z" fill="#C66720"/>
<path fill-rule="evenodd" clip-rule="evenodd" d="M17.4487 40.2697C17.2302 40.7561 17.1396 41.2897 17.1854 41.8205C17.1854 41.9263 17.3484 41.9388 17.3484 41.8205C17.3484 41.3035 17.5803 40.7929 17.5489 40.2822C17.5455 40.2723 17.5393 40.2636 17.5311 40.2571C17.523 40.2505 17.5131 40.2463 17.5027 40.245C17.4923 40.2438 17.4817 40.2454 17.4721 40.2497C17.4626 40.2541 17.4545 40.261 17.4487 40.2697Z" fill="#C66720"/>
<path fill-rule="evenodd" clip-rule="evenodd" d="M49.1314 49.5368C48.9097 50.1139 48.826 50.7343 48.887 51.3491C48.887 51.4301 49.0312 51.4238 49.0374 51.3491C49.0374 51.0502 49.0813 50.7263 49.1189 50.4585C49.1913 50.1629 49.2271 49.8597 49.2255 49.5555C49.2255 49.4932 49.1502 49.4994 49.1314 49.5368Z" fill="#C66720"/>
<path fill-rule="evenodd" clip-rule="evenodd" d="M50.7673 50.7324C50.7673 50.446 50.9051 50.1906 50.9302 49.9041C50.9266 49.8946 50.9202 49.8864 50.9118 49.8806C50.9034 49.8748 50.8934 49.8716 50.8832 49.8716C50.873 49.8716 50.863 49.8748 50.8546 49.8806C50.8462 49.8864 50.8398 49.8946 50.8362 49.9041C50.6541 50.1956 50.5479 50.5276 50.5271 50.8701C50.5063 51.2125 50.5716 51.5548 50.7171 51.8659C50.761 51.9593 50.8863 51.8659 50.855 51.8036C50.743 51.4581 50.713 51.0915 50.7673 50.7324Z" fill="#C66720"/>
<path fill-rule="evenodd" clip-rule="evenodd" d="M52.2715 50.9442C52.291 50.6597 52.2656 50.3739 52.1963 50.0972C52.1894 50.0842 52.1791 50.0733 52.1663 50.0657C52.1536 50.058 52.1391 50.054 52.1243 50.054C52.1094 50.054 52.0949 50.058 52.0822 50.0657C52.0695 50.0733 52.0591 50.0842 52.0522 50.0972C51.9989 50.3792 51.9989 50.6685 52.0522 50.9504C52.0703 51.2757 52.1271 51.5976 52.2214 51.9095C52.2214 52.0154 52.4157 51.9905 52.3906 51.9095C52.3245 51.5915 52.2847 51.2687 52.2715 50.9442Z" fill="#C66720"/>
<path fill-rule="evenodd" clip-rule="evenodd" d="M108.674 36.7446C108.674 36.6761 108.58 36.6387 108.548 36.6948C108.496 36.7758 108.469 36.8697 108.469 36.9657C108.469 37.0617 108.496 37.1557 108.548 37.2366C108.649 37.4297 108.893 37.7162 109.131 37.685C109.15 37.6806 109.167 37.669 109.177 37.6527C109.188 37.6365 109.191 37.6168 109.188 37.5978C109.125 37.2615 108.592 37.1245 108.674 36.7446Z" fill="#C66720"/>
<path fill-rule="evenodd" clip-rule="evenodd" d="M110.936 35.7421C110.874 35.6424 110.817 35.63 110.704 35.5926C110.55 35.5446 110.413 35.4539 110.31 35.331C110.109 35.0959 109.969 34.8159 109.902 34.5152C109.9 34.5029 109.895 34.4913 109.888 34.4809C109.881 34.4705 109.872 34.4615 109.861 34.4546C109.851 34.4477 109.839 34.4428 109.827 34.4404C109.814 34.438 109.802 34.438 109.789 34.4404C109.777 34.4429 109.765 34.4477 109.755 34.4547C109.744 34.4617 109.735 34.4706 109.728 34.481C109.721 34.4914 109.716 34.5031 109.714 34.5154C109.712 34.5277 109.712 34.5403 109.714 34.5526C109.771 34.8962 109.91 35.2211 110.121 35.4992C110.278 35.6923 110.692 36.0099 110.943 35.8355C110.951 35.8212 110.955 35.8045 110.954 35.7878C110.953 35.7711 110.947 35.7551 110.936 35.7421Z" fill="#C66720"/>
<path fill-rule="evenodd" clip-rule="evenodd" d="M112.002 33.6308C111.807 33.4377 111.6 33.2447 111.419 33.0391C111.343 32.9519 111.187 33.0391 111.243 33.145C111.385 33.3957 111.558 33.6279 111.757 33.8363C111.926 34.0107 112.114 34.291 112.384 34.3096C112.397 34.3107 112.41 34.3088 112.423 34.3041C112.435 34.2994 112.446 34.292 112.455 34.2824C112.464 34.2728 112.471 34.2613 112.475 34.2488C112.479 34.2362 112.48 34.223 112.478 34.21C112.44 33.9671 112.19 33.8052 112.002 33.6308Z" fill="#C66720"/>
<path opacity="0.4" fill-rule="evenodd" clip-rule="evenodd" d="M66.1981 11.9514C66.1981 13.6641 63.5594 15.0654 60.294 15.0654C57.0286 15.0654 54.39 13.6766 54.39 11.9514C54.39 10.2263 57.0286 8.83748 60.294 8.83748C63.5594 8.83748 66.1981 10.2388 66.1981 11.9514Z" fill="#DA840D"/>
<path fill-rule="evenodd" clip-rule="evenodd" d="M98.5262 37.9901C85.2138 34.6332 79.642 42.0008 79.8613 50.6701C79.9491 54.0581 83.0578 58.729 85.101 62.2602C86.9135 65.0816 89.0275 67.7 91.4062 70.07C92.9104 71.135 94.9161 72.3619 96.928 72.3619C97.6993 72.2864 98.4367 72.0092 99.0652 71.5585C99.3598 71.6157 99.6447 71.7143 99.9114 71.8512C100.864 72.1751 101.284 70.8547 102.324 71.3218C103.985 72.0754 105.421 70.5433 106.662 69.7088C107.063 69.441 111.049 63.3003 111.481 62.9764C115.587 57.7388 117.655 56.1942 117.699 49.8356C117.749 41.8887 113.731 34.7702 98.5262 37.9901Z" fill="#C73A54"/>
<g style="mix-blend-mode:multiply">
<path fill-rule="evenodd" clip-rule="evenodd" d="M103.572 40.0704C103.572 40.9797 101.228 41.7768 98.2884 41.8516C95.3489 41.9263 92.9484 41.2288 92.9233 40.3382C92.8982 39.4476 95.2674 38.6131 98.2069 38.557C101.146 38.5009 103.547 39.1611 103.572 40.0704Z" fill="#ED6366"/>
</g>
<path fill-rule="evenodd" clip-rule="evenodd" d="M90.1404 43.0101C88.9684 41.2476 86.5679 41.7645 85.0825 42.7983L85.0073 42.8544C84.6624 43.0859 84.3504 43.3624 84.0797 43.6765C83.0232 44.7904 82.3533 46.2112 82.168 47.7308C81.9863 49.5992 82.6193 51.6731 84.2426 52.5014C84.2885 52.5247 84.3258 52.5617 84.3492 52.6073C84.4114 52.5943 84.4722 52.5756 84.5309 52.5512C85.446 52.1776 85.4021 50.6829 85.4084 49.9231C85.4084 48.2353 86.8186 47.4879 88.1097 46.7655C89.2943 46.0867 91.1683 44.5608 90.1404 43.0101Z" fill="#ED6366"/>
<g style="mix-blend-mode:multiply">
<path fill-rule="evenodd" clip-rule="evenodd" d="M111.35 57.3964C110.247 55.9826 108.592 57.7078 107.802 58.5797C105.966 60.6037 104.819 63.1011 102.65 64.8574C100.482 66.6137 96.5456 65.337 94.8596 67.8904C94.7808 68.0134 94.7272 68.1507 94.7019 68.2943C94.6766 68.438 94.68 68.5852 94.7121 68.7275C94.7441 68.8698 94.8041 69.0045 94.8885 69.1237C94.973 69.243 95.0803 69.3445 95.2044 69.4225C95.3796 69.4907 95.5628 69.5367 95.7496 69.5595C96.1396 69.7769 96.5632 69.9284 97.0032 70.0079C98.3781 70.1864 99.7744 69.9246 100.989 69.2605C102.092 68.7374 103.34 69.3477 104.437 68.8308C104.842 68.6112 105.191 68.3023 105.458 67.9278C105.81 67.5226 106.105 67.0722 106.336 66.5888C106.887 65.6815 107.516 64.8231 108.216 64.0229C109.066 63.0639 109.835 62.037 110.516 60.9525C111.331 59.7879 112.07 58.3306 111.35 57.3964Z" fill="#ED6366"/>
</g>
<path fill-rule="evenodd" clip-rule="evenodd" d="M110.999 26.1573C110.259 25.9082 108.899 27.0292 108.323 27.3717C107.007 28.1565 105.672 28.9474 104.405 29.8068C102.482 31.1471 100.888 32.9013 99.7424 34.9386C99.2645 35.8062 98.9441 36.7507 98.796 37.7287C98.6014 38.2422 98.5036 38.7869 98.5077 39.3355C98.5042 39.374 98.5085 39.4128 98.5202 39.4496C98.5319 39.4864 98.5508 39.5206 98.5759 39.5501C98.601 39.5796 98.6316 39.6039 98.6662 39.6216C98.7007 39.6393 98.7385 39.65 98.7772 39.6532C101.986 39.6905 105.27 37.6042 107.514 35.5054C108.69 34.4754 109.621 33.1992 110.241 31.7686C110.549 30.9619 110.78 30.1277 110.93 29.2775C111.106 28.3682 110.842 27.2659 111.137 26.4251C111.153 26.3714 111.148 26.3136 111.122 26.2638C111.096 26.2139 111.052 26.1758 110.999 26.1573Z" fill="#8DB54F"/>
<path fill-rule="evenodd" clip-rule="evenodd" d="M97.9684 39.541C97.9684 38.6504 98.2379 38.0961 98.4949 35.2935C98.7519 32.491 98.7017 31.0897 98.8898 30.6288C99.0778 30.168 100.582 31.1457 100.582 31.1457C100.582 31.1457 100.099 33.2944 99.7421 35.0569C99.3849 36.8194 99.0276 39.9894 99.0276 39.9894C99.0276 39.9894 98.8333 40.5063 98.3633 40.3755C97.8932 40.2447 97.9684 39.541 97.9684 39.541Z" fill="#300D33"/>
</g>
<defs>
<clipPath id="clip0_2_7464">
<rect width="118" height="74" fill="white"/>
</clipPath>
</defs>
</svg>
